<svg width="255" height="21" viewBox="0 0 255 21" fill="none" xmlns="http://www.w3.org/2000/svg">
<path d="M21.2891 5.10938C21.2109 5.5 20.8984 6.13802 20.3516 7.02344C19.8307 7.90885 19.349 8.6901 18.9062 9.36719C18.4635 10.0182 18.2292 10.3568 18.2031 10.3828C18.0469 10.6172 17.9688 10.7865 17.9688 10.8906C17.9688 10.9948 18.0469 11.1771 18.2031 11.4375C18.2031 11.4375 18.2812 11.5286 18.4375 11.7109C18.6198 11.8932 18.8281 12.1016 19.0625 12.3359C19.2969 12.5703 19.5573 12.8438 19.8438 13.1562C20.1302 13.4688 20.3906 13.7812 20.625 14.0938C20.8854 14.3802 21.1068 14.6797 21.2891 14.9922C21.4974 15.3047 21.6406 15.5651 21.7188 15.7734C21.901 16.4245 21.6406 16.75 20.9375 16.75H18.6328C18.4505 16.75 18.2943 16.724 18.1641 16.6719C18.0339 16.6198 17.8906 16.5286 17.7344 16.3984C17.5781 16.2682 17.4349 16.125 17.3047 15.9688C17.1745 15.8125 16.9792 15.5911 16.7188 15.3047C16.4583 15.0182 16.1979 14.7448 15.9375 14.4844C14.8958 13.4948 14.1276 13 13.6328 13C13.3203 13 13.138 13.0911 13.0859 13.2734C13.0339 13.4557 13.0078 13.9766 13.0078 14.8359C13.0339 15.2526 13.0469 15.5911 13.0469 15.8516C13.0469 16.1641 12.9427 16.3984 12.7344 16.5547C12.526 16.6849 12.0703 16.75 11.3672 16.75C10.1432 16.75 8.90625 16.3854 7.65625 15.6562C6.40625 14.9271 5.3125 13.8854 4.375 12.5312C3.48958 11.3333 2.7474 10.1484 2.14844 8.97656C1.57552 7.77865 1.19792 6.86719 1.01562 6.24219C0.833333 5.61719 0.742188 5.17448 0.742188 4.91406C0.742188 4.47135 1.0026 4.25 1.52344 4.25H3.82812C4.11458 4.25 4.32292 4.3151 4.45312 4.44531C4.60938 4.57552 4.73958 4.8099 4.84375 5.14844C5.39062 6.73698 6.05469 8.15625 6.83594 9.40625C7.64323 10.6562 8.25521 11.2812 8.67188 11.2812C8.82812 11.2812 8.93229 11.2292 8.98438 11.125C9.0625 10.9948 9.10156 10.7604 9.10156 10.4219V7.02344C9.07552 6.65885 9.01042 6.34635 8.90625 6.08594C8.80208 5.82552 8.69792 5.64323 8.59375 5.53906C8.48958 5.40885 8.38542 5.27865 8.28125 5.14844C8.20312 5.01823 8.16406 4.90104 8.16406 4.79688C8.16406 4.69271 8.1901 4.60156 8.24219 4.52344C8.29427 4.44531 8.35938 4.38021 8.4375 4.32812C8.54167 4.27604 8.64583 4.25 8.75 4.25H12.3828C12.7995 4.25 13.0078 4.53646 13.0078 5.10938V9.64062C13.0078 10.0833 13.125 10.3047 13.3594 10.3047C13.6198 10.3047 13.9844 10.0703 14.4531 9.60156C14.9479 9.05469 15.4297 8.39062 15.8984 7.60938C16.3672 6.82812 16.7188 6.17708 16.9531 5.65625L17.3047 4.91406C17.487 4.47135 17.8125 4.25 18.2812 4.25H20.5859C21.2109 4.25 21.4453 4.53646 21.2891 5.10938ZM68.0859 7.33594C68.9714 6.45052 70.0391 6.00781 71.2891 6.00781C72.5391 6.00781 73.5938 6.45052 74.4531 7.33594C75.3385 8.19531 75.7812 9.25 75.7812 10.5C75.7812 11.75 75.3385 12.8177 74.4531 13.7031C73.5938 14.5625 72.5391 14.9922 71.2891 14.9922C70.0391 14.9922 68.9714 14.5625 68.0859 13.7031C67.2266 12.8177 66.7969 11.75 66.7969 10.5C66.7969 9.25 67.2266 8.19531 68.0859 7.33594ZM69.2188 12.5703C69.7917 13.1432 70.4818 13.4297 71.2891 13.4297C72.0964 13.4297 72.7865 13.1432 73.3594 12.5703C73.9323 11.9974 74.2188 11.3073 74.2188 10.5C74.2188 9.69271 73.9323 9.0026 73.3594 8.42969C72.7865 7.85677 72.0964 7.57031 71.2891 7.57031C70.4818 7.57031 69.7917 7.85677 69.2188 8.42969C68.6458 9.0026 68.3594 9.69271 68.3594 10.5C68.3594 11.3073 68.6458 11.9974 69.2188 12.5703ZM76.6797 5.10938C76.888 5.29167 76.9922 5.52604 76.9922 5.8125C76.9922 6.09896 76.888 6.34635 76.6797 6.55469C76.4974 6.76302 76.263 6.86719 75.9766 6.86719C75.6901 6.86719 75.4427 6.76302 75.2344 6.55469C75.026 6.34635 74.9219 6.09896 74.9219 5.8125C74.9219 5.52604 75.026 5.29167 75.2344 5.10938C75.4427 4.90104 75.6901 4.79688 75.9766 4.79688C76.263 4.79688 76.4974 4.90104 76.6797 5.10938ZM80 6.90625C80.026 7.60938 80.0391 8.80729 80.0391 10.5C80.0391 12.1927 80.026 13.3906 80 14.0938C79.9219 15.6823 79.4401 16.9193 78.5547 17.8047C77.6953 18.6641 76.4714 19.1198 74.8828 19.1719C74.1797 19.224 72.9818 19.25 71.2891 19.25C69.5964 19.25 68.3984 19.224 67.6953 19.1719C66.1068 19.0938 64.8828 18.625 64.0234 17.7656C63.6849 17.4531 63.4115 17.0885 63.2031 16.6719C62.9948 16.2552 62.8385 15.8516 62.7344 15.4609C62.6562 15.0703 62.6172 14.6146 62.6172 14.0938C62.5651 13.3906 62.5391 12.1927 62.5391 10.5C62.5391 8.80729 62.5651 7.59635 62.6172 6.86719C62.6953 5.30469 63.1641 4.09375 64.0234 3.23438C64.8828 2.34896 66.1068 1.86719 67.6953 1.78906C68.3984 1.76302 69.5964 1.75 71.2891 1.75C72.9818 1.75 74.1797 1.76302 74.8828 1.78906C76.4714 1.86719 77.6953 2.34896 78.5547 3.23438C79.4401 4.09375 79.9219 5.31771 80 6.90625ZM78.125 15.6562C78.2031 15.4479 78.2682 15.1875 78.3203 14.875C78.3724 14.5365 78.4115 14.1458 78.4375 13.7031C78.4635 13.2344 78.4766 12.8568 78.4766 12.5703C78.4766 12.2839 78.4766 11.8802 78.4766 11.3594C78.4766 10.8385 78.4766 10.5521 78.4766 10.5C78.4766 10.4219 78.4766 10.1354 78.4766 9.64062C78.4766 9.11979 78.4766 8.71615 78.4766 8.42969C78.4766 8.14323 78.4635 7.77865 78.4375 7.33594C78.4115 6.86719 78.3724 6.47656 78.3203 6.16406C78.2682 5.82552 78.2031 5.55208 78.125 5.34375C77.8125 4.53646 77.2526 3.97656 76.4453 3.66406C76.237 3.58594 75.9635 3.52083 75.625 3.46875C75.3125 3.41667 74.9219 3.3776 74.4531 3.35156C74.0104 3.32552 73.6458 3.3125 73.3594 3.3125C73.099 3.3125 72.6953 3.3125 72.1484 3.3125C71.6276 3.3125 71.3411 3.3125 71.2891 3.3125C71.237 3.3125 70.9505 3.3125 70.4297 3.3125C69.9089 3.3125 69.5052 3.3125 69.2188 3.3125C68.9323 3.3125 68.5547 3.32552 68.0859 3.35156C67.6432 3.3776 67.2526 3.41667 66.9141 3.46875C66.6016 3.52083 66.3411 3.58594 66.1328 3.66406C65.3255 3.97656 64.7656 4.53646 64.4531 5.34375C64.375 5.55208 64.3099 5.82552 64.2578 6.16406C64.2057 6.47656 64.1667 6.86719 64.1406 7.33594C64.1146 7.77865 64.1016 8.14323 64.1016 8.42969C64.1016 8.6901 64.1016 9.09375 64.1016 9.64062C64.1016 10.1615 64.1016 10.4479 64.1016 10.5C64.1016 10.6042 64.1016 10.8516 64.1016 11.2422C64.1016 11.6068 64.1016 11.9193 64.1016 12.1797C64.1016 12.4141 64.1016 12.7266 64.1016 13.1172C64.1276 13.5078 64.1536 13.8464 64.1797 14.1328C64.2057 14.3932 64.2448 14.6667 64.2969 14.9531C64.349 15.2396 64.401 15.474 64.4531 15.6562C64.7917 16.4635 65.3516 17.0234 66.1328 17.3359C66.3411 17.4141 66.6016 17.4792 66.9141 17.5312C67.2526 17.5833 67.6432 17.6224 68.0859 17.6484C68.5547 17.6745 68.9193 17.6875 69.1797 17.6875C69.4661 17.6875 69.8698 17.6875 70.3906 17.6875C70.9375 17.6875 71.237 17.6875 71.2891 17.6875C71.3672 17.6875 71.6536 17.6875 72.1484 17.6875C72.6693 17.6875 73.0729 17.6875 73.3594 17.6875C73.6458 17.6875 74.0104 17.6745 74.4531 17.6484C74.9219 17.6224 75.3125 17.5833 75.625 17.5312C75.9635 17.4792 76.237 17.4141 76.4453 17.3359C77.2526 16.9974 77.8125 16.4375 78.125 15.6562ZM130.898 11.75H127.969V20.5H124.062V11.75H120.898V8.11719H124.062V5.38281C124.062 4.34115 124.258 3.45573 124.648 2.72656C125.039 1.9974 125.586 1.45052 126.289 1.08594C127.018 0.695312 127.852 0.5 128.789 0.5C129.206 0.5 129.648 0.526042 130.117 0.578125C130.586 0.604167 130.951 0.643229 131.211 0.695312L131.602 0.734375V3.82031H130.039C129.31 3.82031 128.776 4.01562 128.438 4.40625C128.125 4.77083 127.969 5.22656 127.969 5.77344V8.11719H131.445L130.898 11.75ZM190.43 6.4375C190.456 6.54167 190.469 6.71094 190.469 6.94531C190.469 8.32552 190.208 9.70573 189.688 11.0859C189.167 12.4401 188.424 13.6901 187.461 14.8359C186.523 15.9557 185.299 16.8672 183.789 17.5703C182.279 18.2734 180.612 18.625 178.789 18.625C176.497 18.625 174.401 18.013 172.5 16.7891C172.786 16.8151 173.112 16.8281 173.477 16.8281C175.378 16.8281 177.083 16.2422 178.594 15.0703C177.682 15.0703 176.875 14.8099 176.172 14.2891C175.495 13.7422 175.026 13.0651 174.766 12.2578C175.026 12.2839 175.273 12.2969 175.508 12.2969C175.872 12.2969 176.237 12.2578 176.602 12.1797C175.977 12.0495 175.417 11.7891 174.922 11.3984C174.427 11.0078 174.036 10.5391 173.75 9.99219C173.464 9.41927 173.32 8.80729 173.32 8.15625V8.07812C173.893 8.41667 174.505 8.59896 175.156 8.625C173.932 7.79167 173.32 6.64583 173.32 5.1875C173.32 4.45833 173.516 3.76823 173.906 3.11719C174.922 4.39323 176.159 5.40885 177.617 6.16406C179.102 6.91927 180.677 7.33594 182.344 7.41406C182.292 7.10156 182.266 6.78906 182.266 6.47656C182.266 5.35677 182.656 4.39323 183.438 3.58594C184.245 2.77865 185.208 2.375 186.328 2.375C187.526 2.375 188.529 2.80469 189.336 3.66406C190.273 3.48177 191.146 3.15625 191.953 2.6875C191.641 3.65104 191.042 4.40625 190.156 4.95312C190.938 4.84896 191.719 4.6276 192.5 4.28906C191.927 5.1224 191.237 5.83854 190.43 6.4375ZM253.984 5.34375C254.062 5.65625 254.128 6.04688 254.18 6.51562C254.258 6.98438 254.31 7.45312 254.336 7.92188C254.362 8.36458 254.375 8.78125 254.375 9.17188C254.401 9.5625 254.414 9.88802 254.414 10.1484V10.5C254.414 12.8438 254.271 14.5755 253.984 15.6953C253.854 16.138 253.62 16.5286 253.281 16.8672C252.943 17.2057 252.539 17.4401 252.07 17.5703C251.576 17.7005 250.638 17.8047 249.258 17.8828C247.878 17.9349 246.615 17.974 245.469 18H243.75C239.297 18 236.523 17.8568 235.43 17.5703C234.414 17.2839 233.776 16.6589 233.516 15.6953C233.385 15.2005 233.281 14.5234 233.203 13.6641C233.151 12.7786 233.112 12.0365 233.086 11.4375V10.5C233.086 8.18229 233.229 6.46354 233.516 5.34375C233.646 4.875 233.88 4.47135 234.219 4.13281C234.557 3.79427 234.961 3.5599 235.43 3.42969C235.924 3.29948 236.862 3.20833 238.242 3.15625C239.622 3.07812 240.885 3.02604 242.031 3H243.75C248.203 3 250.977 3.14323 252.07 3.42969C252.539 3.5599 252.943 3.79427 253.281 4.13281C253.62 4.47135 253.854 4.875 253.984 5.34375ZM241.562 13.7031L247.148 10.5L241.562 7.33594V13.7031Z" fill="#3C4767"/>
</svg>
