<svg width="24" height="24" viewBox="0 0 24 24" fill="none" xmlns="http://www.w3.org/2000/svg">
<g id="cinema 1">
<g id="XMLID 761">
<g id="XMLID 1219">
<path id="XMLID 1469" d="M13.2656 6.49218C13.2656 5.09644 12.1301 3.96094 10.7344 3.96094C9.33863 3.96094 8.20312 5.09644 8.20312 6.49218C8.20312 7.88793 9.33863 9.02343 10.7344 9.02343C12.1301 9.02343 13.2656 7.88793 13.2656 6.49218ZM9.14062 6.49218C9.14062 5.61337 9.85556 4.89844 10.7344 4.89844C11.6132 4.89844 12.3281 5.61337 12.3281 6.49218C12.3281 7.371 11.6132 8.08593 10.7344 8.08593C9.85556 8.08593 9.14062 7.371 9.14062 6.49218Z" fill="white"/>
<path id="XMLID 1605" d="M6.64372 12.5524C7.24602 12.2455 7.69273 11.7225 7.90166 11.0796C8.11053 10.4367 8.05658 9.75095 7.74969 9.14871C7.4428 8.54641 6.91972 8.09969 6.27688 7.89077C5.63394 7.68185 4.9482 7.73585 4.34595 8.04274C3.74366 8.34963 3.29694 8.87271 3.08802 9.51555C2.87914 10.1584 2.93309 10.8442 3.23999 11.4465C3.54688 12.0488 4.06995 12.4955 4.7128 12.7044C4.97023 12.788 5.23447 12.8295 5.49748 12.8295C5.89138 12.8296 6.28255 12.7365 6.64372 12.5524ZM5.00249 11.8128C4.59777 11.6813 4.26847 11.4001 4.07525 11.0209C3.88203 10.6417 3.84805 10.21 3.97958 9.80528C4.11106 9.40056 4.39231 9.07127 4.77148 8.87805C4.99888 8.76218 5.24511 8.70358 5.49313 8.70358C5.65869 8.70358 5.82509 8.72974 5.98714 8.78238C6.39186 8.91386 6.72116 9.19511 6.91438 9.57428C7.10759 9.95345 7.14158 10.3852 7.01005 10.7899C6.87856 11.1946 6.59731 11.5239 6.21814 11.7171C5.83892 11.9103 5.4072 11.9443 5.00249 11.8128Z" fill="white"/>
<path id="XMLID 1609" d="M6.00924 18.5032C6.45756 18.8289 6.97787 18.9857 7.49363 18.9857C8.27701 18.9857 9.05007 18.6241 9.5447 17.9432C9.9421 17.3963 10.1027 16.7273 9.9969 16.0595C9.8911 15.3917 9.53166 14.8052 8.98468 14.4078C8.4377 14.0104 7.76884 13.8497 7.10096 13.9556C6.43318 14.0613 5.84659 14.4208 5.44923 14.9678C4.62896 16.0968 4.88016 17.6829 6.00924 18.5032ZM6.20776 15.5188C6.45793 15.1744 6.82726 14.9481 7.24768 14.8815C7.3321 14.8682 7.41652 14.8615 7.50038 14.8615C7.83413 14.8615 8.15851 14.9663 8.43371 15.1663C9.14462 15.6828 9.30277 16.6813 8.78626 17.3922C8.26974 18.1031 7.27121 18.2613 6.56031 17.7448C5.8494 17.2283 5.69124 16.2297 6.20776 15.5188Z" fill="white"/>
<path id="XMLID 1659" d="M13.9764 18.9857C14.4922 18.9857 15.0126 18.8288 15.4609 18.5032C16.5899 17.6828 16.8411 16.0968 16.0208 14.9677C15.6234 14.4208 15.0368 14.0613 14.3691 13.9556C13.7013 13.8498 13.0324 14.0104 12.4854 14.4078C11.9384 14.8051 11.5789 15.3918 11.4732 16.0595C11.3674 16.7272 11.528 17.3962 11.9254 17.9432C12.4201 18.6241 13.1929 18.9857 13.9764 18.9857ZM13.0364 15.1662C13.3807 14.916 13.8018 14.8148 14.2224 14.8815C14.6428 14.9481 15.0121 15.1744 15.2623 15.5188C15.7788 16.2297 15.6207 17.2282 14.9097 17.7447C14.1988 18.2613 13.2003 18.1031 12.6838 17.3922C12.1673 16.6813 12.3255 15.6827 13.0364 15.1662Z" fill="white"/>
<path id="XMLID 1678" d="M15.1913 7.89069C14.5484 8.09962 14.0253 8.54633 13.7185 9.14863C13.4116 9.75093 13.3577 10.4367 13.5665 11.0796C13.7755 11.7224 14.2222 12.2455 14.8245 12.5524C15.1856 12.7364 15.5768 12.8295 15.9707 12.8295C16.2337 12.8295 16.4981 12.788 16.7554 12.7044C17.3983 12.4955 17.9214 12.0487 18.2282 11.4464C18.5351 10.8442 18.5891 10.1584 18.3802 9.51552C18.1713 8.87263 17.7245 8.34955 17.1222 8.04271C16.52 7.73582 15.8342 7.68191 15.1913 7.89069ZM16.6967 8.87802C17.0758 9.07124 17.3571 9.40049 17.4886 9.80526C17.6201 10.21 17.5861 10.6417 17.3929 11.0209C17.1997 11.4 16.8704 11.6813 16.4657 11.8128C16.0609 11.9443 15.6292 11.9103 15.2501 11.7171C14.8709 11.5239 14.5896 11.1946 14.4581 10.7899C14.3266 10.3851 14.3606 9.95343 14.5538 9.57426C14.747 9.19509 15.0763 8.91384 15.4811 8.78235C15.6431 8.72966 15.8095 8.70355 15.9751 8.70355C16.223 8.70355 16.4693 8.76215 16.6967 8.87802Z" fill="white"/>
<path id="XMLID 1713" d="M12.3418 12C12.3418 11.1137 11.6208 10.3926 10.7344 10.3926C9.84803 10.3926 9.12695 11.1137 9.12695 12C9.12695 12.8864 9.84803 13.6075 10.7344 13.6075C11.6208 13.6075 12.3418 12.8864 12.3418 12ZM10.0645 12C10.0645 11.6306 10.365 11.3301 10.7344 11.3301C11.1038 11.3301 11.4043 11.6306 11.4043 12C11.4043 12.3694 11.1038 12.67 10.7344 12.67C10.365 12.67 10.0645 12.3694 10.0645 12Z" fill="white"/>
<path id="XMLID 1768" d="M23.8627 20.7073C23.3326 20.1772 22.6279 19.8853 21.8783 19.8853C21.1287 19.8853 20.424 20.1772 19.8939 20.7073C19.1913 21.4099 18.2571 21.7969 17.2634 21.7969H15.1344C16.3078 21.2693 17.3877 20.5273 18.3247 19.5903C20.3522 17.5629 21.4688 14.8673 21.4688 12C21.4688 9.90281 20.8638 7.87102 19.7192 6.12427C19.5774 5.9077 19.2868 5.84719 19.0702 5.98908C18.8537 6.13097 18.7932 6.42155 18.9351 6.63806C19.9793 8.23172 20.5312 10.0859 20.5312 12C20.5312 17.402 16.1364 21.7969 10.7344 21.7969C5.33236 21.7969 0.9375 17.402 0.9375 12C0.9375 6.59798 5.33236 2.20312 10.7344 2.20312C12.6517 2.20312 14.5086 2.75681 16.104 3.80438C16.3204 3.9465 16.611 3.88627 16.7531 3.6698C16.8952 3.45338 16.835 3.1628 16.6185 3.02067C14.8698 1.87252 12.8351 1.26562 10.7344 1.26562C7.86713 1.26562 5.17148 2.38219 3.14405 4.40967C1.11661 6.43716 0 9.13275 0 12C0 14.8673 1.11656 17.5629 3.14405 19.5904C5.17148 21.6178 7.86713 22.7344 10.7344 22.7344H17.2634C18.5075 22.7344 19.6771 22.2499 20.5568 21.3702C20.9098 21.0172 21.3791 20.8228 21.8783 20.8228C22.3775 20.8228 22.8468 21.0172 23.1998 21.3702C23.3828 21.5532 23.6796 21.5532 23.8627 21.3702C24.0458 21.1871 24.0458 20.8903 23.8627 20.7073Z" fill="white"/>
<path id="XMLID 1769" d="M17.9961 5.21242C18.1194 5.21242 18.2403 5.16273 18.3275 5.07555C18.4147 4.98789 18.4648 4.86742 18.4648 4.74414C18.4648 4.62039 18.4147 4.49992 18.3275 4.41227C18.2403 4.32508 18.1194 4.27539 17.9961 4.27539C17.8728 4.27539 17.7519 4.32508 17.6647 4.41227C17.5775 4.49992 17.5273 4.62039 17.5273 4.74414C17.5273 4.86742 17.5775 4.98836 17.6647 5.07555C17.7519 5.16273 17.8728 5.21242 17.9961 5.21242Z" fill="white"/>
</g>
</g>
</g>
</svg>
