<svg width="126" height="14" viewBox="0 0 126 14" fill="none" xmlns="http://www.w3.org/2000/svg">
<path d="M13.8379 3.62109C13.7871 3.875 13.584 4.28971 13.2285 4.86523C12.89 5.44076 12.5768 5.94857 12.2891 6.38867C12.0013 6.81185 11.849 7.0319 11.832 7.04883C11.7305 7.20117 11.6797 7.3112 11.6797 7.37891C11.6797 7.44661 11.7305 7.5651 11.832 7.73438C11.832 7.73438 11.8828 7.79362 11.9844 7.91211C12.1029 8.0306 12.2383 8.16602 12.3906 8.31836C12.543 8.4707 12.7122 8.64844 12.8984 8.85156C13.0846 9.05469 13.2539 9.25781 13.4062 9.46094C13.5755 9.64714 13.7194 9.8418 13.8379 10.0449C13.9733 10.248 14.0664 10.4173 14.1172 10.5527C14.2357 10.9759 14.0664 11.1875 13.6094 11.1875H12.1113C11.9928 11.1875 11.8913 11.1706 11.8066 11.1367C11.722 11.1029 11.6289 11.0436 11.5273 10.959C11.4258 10.8743 11.3327 10.7812 11.248 10.6797C11.1634 10.5781 11.0365 10.4342 10.8672 10.248C10.6979 10.0618 10.5286 9.88411 10.3594 9.71484C9.68229 9.07161 9.18294 8.75 8.86133 8.75C8.6582 8.75 8.53971 8.80924 8.50586 8.92773C8.47201 9.04622 8.45508 9.38477 8.45508 9.94336C8.47201 10.2142 8.48047 10.4342 8.48047 10.6035C8.48047 10.8066 8.41276 10.959 8.27734 11.0605C8.14193 11.1452 7.8457 11.1875 7.38867 11.1875C6.5931 11.1875 5.78906 10.9505 4.97656 10.4766C4.16406 10.0026 3.45312 9.32552 2.84375 8.44531C2.26823 7.66667 1.78581 6.89648 1.39648 6.13477C1.02409 5.35612 0.778646 4.76367 0.660156 4.35742C0.541667 3.95117 0.482422 3.66341 0.482422 3.49414C0.482422 3.20638 0.651693 3.0625 0.990234 3.0625H2.48828C2.67448 3.0625 2.8099 3.10482 2.89453 3.18945C2.99609 3.27409 3.08073 3.42643 3.14844 3.64648C3.50391 4.67904 3.93555 5.60156 4.44336 6.41406C4.9681 7.22656 5.36589 7.63281 5.63672 7.63281C5.73828 7.63281 5.80599 7.59896 5.83984 7.53125C5.89062 7.44661 5.91602 7.29427 5.91602 7.07422V4.86523C5.89909 4.62826 5.85677 4.42513 5.78906 4.25586C5.72135 4.08659 5.65365 3.9681 5.58594 3.90039C5.51823 3.81576 5.45052 3.73112 5.38281 3.64648C5.33203 3.56185 5.30664 3.48568 5.30664 3.41797C5.30664 3.35026 5.32357 3.29102 5.35742 3.24023C5.39128 3.18945 5.43359 3.14714 5.48438 3.11328C5.55208 3.07943 5.61979 3.0625 5.6875 3.0625H8.04883C8.31966 3.0625 8.45508 3.2487 8.45508 3.62109V6.56641C8.45508 6.85417 8.53125 6.99805 8.68359 6.99805C8.85286 6.99805 9.08984 6.8457 9.39453 6.54102C9.71615 6.18555 10.0293 5.75391 10.334 5.24609C10.6387 4.73828 10.8672 4.3151 11.0195 3.97656L11.248 3.49414C11.3665 3.20638 11.5781 3.0625 11.8828 3.0625H13.3809C13.7871 3.0625 13.9395 3.2487 13.8379 3.62109ZM85.084 7.9375H83.1797V13.625H80.6406V7.9375H78.584V5.57617H80.6406V3.79883C80.6406 3.12174 80.7676 2.54622 81.0215 2.07227C81.2754 1.59831 81.6309 1.24284 82.0879 1.00586C82.5618 0.751953 83.1035 0.625 83.7129 0.625C83.9837 0.625 84.2715 0.641927 84.5762 0.675781C84.8809 0.692708 85.1178 0.718099 85.2871 0.751953L85.541 0.777344V2.7832H84.5254C84.0514 2.7832 83.7044 2.91016 83.4844 3.16406C83.2812 3.40104 83.1797 3.69727 83.1797 4.05273V5.57617H85.4395L85.084 7.9375ZM123.779 4.48438C123.796 4.55208 123.805 4.66211 123.805 4.81445C123.805 5.71159 123.635 6.60872 123.297 7.50586C122.958 8.38607 122.476 9.19857 121.85 9.94336C121.24 10.6712 120.445 11.2637 119.463 11.7207C118.481 12.1777 117.398 12.4062 116.213 12.4062C114.723 12.4062 113.361 12.0085 112.125 11.2129C112.311 11.2298 112.523 11.2383 112.76 11.2383C113.995 11.2383 115.104 10.8574 116.086 10.0957C115.493 10.0957 114.969 9.92643 114.512 9.58789C114.072 9.23242 113.767 8.79232 113.598 8.26758C113.767 8.28451 113.928 8.29297 114.08 8.29297C114.317 8.29297 114.554 8.26758 114.791 8.2168C114.385 8.13216 114.021 7.96289 113.699 7.70898C113.378 7.45508 113.124 7.15039 112.938 6.79492C112.751 6.42253 112.658 6.02474 112.658 5.60156V5.55078C113.031 5.77083 113.428 5.88932 113.852 5.90625C113.056 5.36458 112.658 4.61979 112.658 3.67188C112.658 3.19792 112.785 2.74935 113.039 2.32617C113.699 3.1556 114.503 3.81576 115.451 4.30664C116.416 4.79753 117.44 5.06836 118.523 5.11914C118.49 4.91602 118.473 4.71289 118.473 4.50977C118.473 3.7819 118.727 3.1556 119.234 2.63086C119.759 2.10612 120.385 1.84375 121.113 1.84375C121.892 1.84375 122.544 2.12305 123.068 2.68164C123.678 2.56315 124.245 2.35156 124.77 2.04688C124.566 2.67318 124.177 3.16406 123.602 3.51953C124.109 3.45182 124.617 3.30794 125.125 3.08789C124.753 3.62956 124.304 4.09505 123.779 4.48438Z" fill="#686868"/>
<path d="M44.2559 5.06836C44.8314 4.49284 45.5254 4.20508 46.3379 4.20508C47.1504 4.20508 47.8359 4.49284 48.3945 5.06836C48.9701 5.62695 49.2578 6.3125 49.2578 7.125C49.2578 7.9375 48.9701 8.63151 48.3945 9.20703C47.8359 9.76562 47.1504 10.0449 46.3379 10.0449C45.5254 10.0449 44.8314 9.76562 44.2559 9.20703C43.6973 8.63151 43.418 7.9375 43.418 7.125C43.418 6.3125 43.6973 5.62695 44.2559 5.06836ZM44.9922 8.4707C45.3646 8.8431 45.8132 9.0293 46.3379 9.0293C46.8626 9.0293 47.3112 8.8431 47.6836 8.4707C48.056 8.09831 48.2422 7.64974 48.2422 7.125C48.2422 6.60026 48.056 6.15169 47.6836 5.7793C47.3112 5.4069 46.8626 5.2207 46.3379 5.2207C45.8132 5.2207 45.3646 5.4069 44.9922 5.7793C44.6198 6.15169 44.4336 6.60026 44.4336 7.125C44.4336 7.64974 44.6198 8.09831 44.9922 8.4707ZM49.8418 3.62109C49.9772 3.73958 50.0449 3.89193 50.0449 4.07812C50.0449 4.26432 49.9772 4.42513 49.8418 4.56055C49.7233 4.69596 49.571 4.76367 49.3848 4.76367C49.1986 4.76367 49.0378 4.69596 48.9023 4.56055C48.7669 4.42513 48.6992 4.26432 48.6992 4.07812C48.6992 3.89193 48.7669 3.73958 48.9023 3.62109C49.0378 3.48568 49.1986 3.41797 49.3848 3.41797C49.571 3.41797 49.7233 3.48568 49.8418 3.62109ZM52 4.78906C52.0169 5.24609 52.0254 6.02474 52.0254 7.125C52.0254 8.22526 52.0169 9.00391 52 9.46094C51.9492 10.4935 51.6361 11.2975 51.0605 11.873C50.502 12.4316 49.7064 12.7279 48.6738 12.7617C48.2168 12.7956 47.4382 12.8125 46.3379 12.8125C45.2376 12.8125 44.459 12.7956 44.002 12.7617C42.9694 12.7109 42.1738 12.4062 41.6152 11.8477C41.3952 11.6445 41.2174 11.4076 41.082 11.1367C40.9466 10.8659 40.8451 10.6035 40.7773 10.3496C40.7266 10.0957 40.7012 9.79948 40.7012 9.46094C40.6673 9.00391 40.6504 8.22526 40.6504 7.125C40.6504 6.02474 40.6673 5.23763 40.7012 4.76367C40.752 3.74805 41.0566 2.96094 41.6152 2.40234C42.1738 1.82682 42.9694 1.51367 44.002 1.46289C44.459 1.44596 45.2376 1.4375 46.3379 1.4375C47.4382 1.4375 48.2168 1.44596 48.6738 1.46289C49.7064 1.51367 50.502 1.82682 51.0605 2.40234C51.6361 2.96094 51.9492 3.75651 52 4.78906ZM50.7812 10.4766C50.832 10.3411 50.8743 10.1719 50.9082 9.96875C50.9421 9.7487 50.9674 9.49479 50.9844 9.20703C51.0013 8.90234 51.0098 8.6569 51.0098 8.4707C51.0098 8.28451 51.0098 8.02214 51.0098 7.68359C51.0098 7.34505 51.0098 7.15885 51.0098 7.125C51.0098 7.07422 51.0098 6.88802 51.0098 6.56641C51.0098 6.22786 51.0098 5.96549 51.0098 5.7793C51.0098 5.5931 51.0013 5.35612 50.9844 5.06836C50.9674 4.76367 50.9421 4.50977 50.9082 4.30664C50.8743 4.08659 50.832 3.90885 50.7812 3.77344C50.5781 3.2487 50.2142 2.88477 49.6895 2.68164C49.554 2.63086 49.3763 2.58854 49.1562 2.55469C48.9531 2.52083 48.6992 2.49544 48.3945 2.47852C48.1068 2.46159 47.8698 2.45312 47.6836 2.45312C47.5143 2.45312 47.252 2.45312 46.8965 2.45312C46.5579 2.45312 46.3717 2.45312 46.3379 2.45312C46.304 2.45312 46.1178 2.45312 45.7793 2.45312C45.4408 2.45312 45.1784 2.45312 44.9922 2.45312C44.806 2.45312 44.5605 2.46159 44.2559 2.47852C43.9681 2.49544 43.7142 2.52083 43.4941 2.55469C43.291 2.58854 43.1217 2.63086 42.9863 2.68164C42.4616 2.88477 42.0977 3.2487 41.8945 3.77344C41.8438 3.90885 41.8014 4.08659 41.7676 4.30664C41.7337 4.50977 41.7083 4.76367 41.6914 5.06836C41.6745 5.35612 41.666 5.5931 41.666 5.7793C41.666 5.94857 41.666 6.21094 41.666 6.56641C41.666 6.90495 41.666 7.09115 41.666 7.125C41.666 7.19271 41.666 7.35352 41.666 7.60742C41.666 7.8444 41.666 8.04753 41.666 8.2168C41.666 8.36914 41.666 8.57227 41.666 8.82617C41.6829 9.08008 41.6999 9.30013 41.7168 9.48633C41.7337 9.6556 41.7591 9.83333 41.793 10.0195C41.8268 10.2057 41.8607 10.3581 41.8945 10.4766C42.1146 11.0013 42.4785 11.3652 42.9863 11.5684C43.1217 11.6191 43.291 11.6615 43.4941 11.6953C43.7142 11.7292 43.9681 11.7546 44.2559 11.7715C44.5605 11.7884 44.7975 11.7969 44.9668 11.7969C45.153 11.7969 45.4154 11.7969 45.7539 11.7969C46.1094 11.7969 46.304 11.7969 46.3379 11.7969C46.3887 11.7969 46.5749 11.7969 46.8965 11.7969C47.235 11.7969 47.4974 11.7969 47.6836 11.7969C47.8698 11.7969 48.1068 11.7884 48.3945 11.7715C48.6992 11.7546 48.9531 11.7292 49.1562 11.6953C49.3763 11.6615 49.554 11.6191 49.6895 11.5684C50.2142 11.3483 50.5781 10.9844 50.7812 10.4766Z" fill="white"/>
</svg>
