<svg width="59" height="59" viewBox="0 0 59 59" fill="none" xmlns="http://www.w3.org/2000/svg">
<rect x="59" y="59" width="59" height="59" rx="5" transform="rotate(180 59 59)" fill="#1B2133"/>
<g clip-path="url(#clip0_1_21090)">
<path d="M39.1816 20.4457C37.9365 19.0953 36.2281 18.3516 34.3706 18.3516C32.9822 18.3516 31.7107 18.7905 30.5913 19.6561C30.0265 20.093 29.5147 20.6276 29.0634 21.2515C28.6124 20.6278 28.1004 20.093 27.5353 19.6561C26.4161 18.7905 25.1446 18.3516 23.7562 18.3516C21.8988 18.3516 20.1901 19.0953 18.945 20.4457C17.7148 21.7804 17.0371 23.6037 17.0371 25.5801C17.0371 27.6143 17.7952 29.4763 19.4227 31.4402C20.8786 33.1969 22.9712 34.9802 25.3944 37.0452C26.2218 37.7504 27.1597 38.5498 28.1336 39.4013C28.3909 39.6266 28.721 39.7507 29.0634 39.7507C29.4057 39.7507 29.736 39.6266 29.9929 39.4016C30.9667 38.55 31.9052 37.7502 32.733 37.0447C35.1558 34.98 37.2484 33.1969 38.7043 31.44C40.3318 29.4763 41.0897 27.6143 41.0897 25.5799C41.0897 23.6037 40.412 21.7804 39.1816 20.4457Z" fill="white"/>
</g>
<defs>
<clipPath id="clip0_1_21090">
<rect width="24.0526" height="24.0526" fill="white" transform="translate(17.0371 17.0371)"/>
</clipPath>
</defs>
</svg>
