<svg width="24" height="24" viewBox="0 0 24 24" fill="none" xmlns="http://www.w3.org/2000/svg">
<g clip-path="url(#clip0_1_24473)">
<path d="M9.21094 19.0371C8.69316 19.0371 8.27344 19.4568 8.27344 19.9746V23.0626C8.27344 23.5804 8.69316 24.0001 9.21094 24.0001C9.72872 24.0001 10.1484 23.5804 10.1484 23.0626V19.9746C10.1484 19.4568 9.72872 19.0371 9.21094 19.0371Z" fill="#1E2538"/>
<path d="M11.0859 15.2812H10.1484V0.9375C10.1484 0.419719 9.72872 0 9.21094 0C8.69316 0 8.27344 0.419719 8.27344 0.9375V15.2812H7.33594C6.81816 15.2812 6.39844 15.701 6.39844 16.2188C6.39844 16.7365 6.81816 17.1562 7.33594 17.1562H11.0859C11.6037 17.1562 12.0234 16.7365 12.0234 16.2188C12.0234 15.701 11.6037 15.2812 11.0859 15.2812Z" fill="#1E2538"/>
<path d="M2.83594 6.75586C2.31816 6.75586 1.89844 7.17558 1.89844 7.69336V23.0626C1.89844 23.5804 2.31816 24.0001 2.83594 24.0001C3.35372 24.0001 3.77344 23.5804 3.77344 23.0626V7.69336C3.77344 7.17558 3.35372 6.75586 2.83594 6.75586Z" fill="#1E2538"/>
<path d="M4.71094 3.01144H3.77344V0.9375C3.77344 0.419719 3.35372 0 2.83594 0C2.31816 0 1.89844 0.419719 1.89844 0.9375V3.01144H0.960938C0.443156 3.01144 0.0234375 3.43116 0.0234375 3.94894C0.0234375 4.46672 0.443156 4.88644 0.960938 4.88644H4.71094C5.22872 4.88644 5.64844 4.46672 5.64844 3.94894C5.64844 3.43116 5.22872 3.01144 4.71094 3.01144Z" fill="#1E2538"/>
<path d="M21.1641 8.02344C20.6463 8.02344 20.2266 8.44316 20.2266 8.96094V23.0624C20.2266 23.5802 20.6463 23.9999 21.1641 23.9999C21.6818 23.9999 22.1016 23.5802 22.1016 23.0624V8.96094C22.1016 8.44316 21.6818 8.02344 21.1641 8.02344Z" fill="#1E2538"/>
<path d="M23.0391 4.27134H22.1016V0.9375C22.1016 0.419719 21.6818 0 21.1641 0C20.6463 0 20.2266 0.419719 20.2266 0.9375V4.27134H19.2891C18.7713 4.27134 18.3516 4.69106 18.3516 5.20884C18.3516 5.72662 18.7713 6.14634 19.2891 6.14634H23.0391C23.5568 6.14634 23.9766 5.72662 23.9766 5.20884C23.9766 4.69106 23.5568 4.27134 23.0391 4.27134Z" fill="#1E2538"/>
<path d="M15.0703 14.9121C14.5525 14.9121 14.1328 15.3318 14.1328 15.8496V23.0626C14.1328 23.5804 14.5525 24.0001 15.0703 24.0001C15.5881 24.0001 16.0078 23.5804 16.0078 23.0626V15.8496C16.0078 15.3318 15.5881 14.9121 15.0703 14.9121Z" fill="#1E2538"/>
<path d="M16.9453 11.1677H16.0078V0.9375C16.0078 0.419719 15.5881 0 15.0703 0C14.5525 0 14.1328 0.419719 14.1328 0.9375V11.1677H13.1953C12.6775 11.1677 12.2578 11.5874 12.2578 12.1052C12.2578 12.623 12.6775 13.0427 13.1953 13.0427H16.9453C17.4631 13.0427 17.8828 12.623 17.8828 12.1052C17.8828 11.5874 17.4631 11.1677 16.9453 11.1677Z" fill="#1E2538"/>
</g>
<defs>
<clipPath id="clip0_1_24473">
<rect width="24" height="24" fill="white"/>
</clipPath>
</defs>
</svg>
