<svg width="59" height="59" viewBox="0 0 59 59" fill="none" xmlns="http://www.w3.org/2000/svg">
<rect x="58.8711" y="58.8711" width="58.871" height="58.871" rx="10" transform="rotate(180 58.8711 58.8711)" fill="#1B2133"/>
<g clip-path="url(#clip0_1_21108)">
<path d="M22.239 24.2617H19.1861C18.7646 24.2617 18.4229 24.6034 18.4229 25.025V37.2364C18.4229 37.6579 18.7646 37.9996 19.1861 37.9996H22.239C22.6604 37.9996 23.0022 37.6579 23.0022 37.2364V25.0249C23.0022 24.6034 22.6605 24.2617 22.239 24.2617Z" fill="white"/>
<path d="M41.3039 26.2862C41.1693 25.1022 40.0633 24.2631 38.8718 24.2631H32.9215C33.4272 23.3576 33.6986 20.7965 33.6865 19.7503C33.6666 18.0186 32.2325 16.6309 30.5007 16.6309H29.8709C29.4491 16.6309 29.1077 16.9722 29.1077 17.3941C29.1077 19.159 28.4204 22.3446 27.1244 23.6407C26.252 24.5131 25.5062 24.8292 24.5283 25.3179V36.77C26.0255 37.269 27.9264 38.001 30.8239 38.001H35.8165C37.4615 38.001 38.7427 36.4775 38.1053 34.8677C39.0765 34.6031 39.7927 33.7124 39.7927 32.6585C39.7927 32.3611 39.7353 32.0764 39.6317 31.8148C41.2683 31.3689 41.8707 29.348 40.7348 28.0792C41.1521 27.6129 41.3823 26.9752 41.3039 26.2862Z" fill="white"/>
</g>
<defs>
<clipPath id="clip0_1_21108">
<rect width="26" height="26" fill="white" transform="translate(16.8711 12)"/>
</clipPath>
</defs>
</svg>
