<svg width="17" height="3" viewBox="0 0 17 3" fill="none" xmlns="http://www.w3.org/2000/svg">
<path d="M3 1.5C3 2.32843 2.32843 3 1.5 3C0.671573 3 0 2.32843 0 1.5C0 0.671573 0.671573 0 1.5 0C2.32843 0 3 0.671573 3 1.5Z" fill="white" fill-opacity="0.5"/>
<path d="M3 1.5C3 2.32843 2.32843 3 1.5 3C0.671573 3 0 2.32843 0 1.5C0 0.671573 0.671573 0 1.5 0C2.32843 0 3 0.671573 3 1.5Z" fill="white" fill-opacity="0.5"/>
<path d="M3 1.5C3 2.32843 2.32843 3 1.5 3C0.671573 3 0 2.32843 0 1.5C0 0.671573 0.671573 0 1.5 0C2.32843 0 3 0.671573 3 1.5Z" fill="white" fill-opacity="0.5"/>
<path d="M10 1.5C10 2.32843 9.32843 3 8.5 3C7.67157 3 7 2.32843 7 1.5C7 0.671573 7.67157 0 8.5 0C9.32843 0 10 0.671573 10 1.5Z" fill="white" fill-opacity="0.5"/>
<path d="M10 1.5C10 2.32843 9.32843 3 8.5 3C7.67157 3 7 2.32843 7 1.5C7 0.671573 7.67157 0 8.5 0C9.32843 0 10 0.671573 10 1.5Z" fill="white" fill-opacity="0.5"/>
<path d="M10 1.5C10 2.32843 9.32843 3 8.5 3C7.67157 3 7 2.32843 7 1.5C7 0.671573 7.67157 0 8.5 0C9.32843 0 10 0.671573 10 1.5Z" fill="white" fill-opacity="0.5"/>
<path d="M17 1.5C17 2.32843 16.3284 3 15.5 3C14.6716 3 14 2.32843 14 1.5C14 0.671573 14.6716 0 15.5 0C16.3284 0 17 0.671573 17 1.5Z" fill="white" fill-opacity="0.5"/>
<path d="M17 1.5C17 2.32843 16.3284 3 15.5 3C14.6716 3 14 2.32843 14 1.5C14 0.671573 14.6716 0 15.5 0C16.3284 0 17 0.671573 17 1.5Z" fill="white" fill-opacity="0.5"/>
<path d="M17 1.5C17 2.32843 16.3284 3 15.5 3C14.6716 3 14 2.32843 14 1.5C14 0.671573 14.6716 0 15.5 0C16.3284 0 17 0.671573 17 1.5Z" fill="white" fill-opacity="0.5"/>
</svg>
