<svg width="18" height="20" viewBox="0 0 18 20" fill="none" xmlns="http://www.w3.org/2000/svg">
<path d="M16.338 7.69217L4.52548 0.410714C3.67087 -0.115419 2.63762 -0.137294 1.76149 0.352199C0.885353 0.841614 0.362305 1.73306 0.362305 2.73662V17.2332C0.362305 18.7506 1.58496 19.9918 3.0877 20C3.0918 20 3.0959 20 3.09993 20C3.56954 20 4.05891 19.8528 4.51598 19.5739C4.88368 19.3495 4.99989 18.8696 4.77556 18.502C4.55122 18.1342 4.07122 18.0181 3.70364 18.2424C3.48985 18.3728 3.28106 18.4402 3.0961 18.4402C2.52911 18.4371 1.92203 17.9514 1.92203 17.2332V2.73666C1.92203 2.30615 2.14641 1.92384 2.52219 1.71388C2.89801 1.50392 3.34118 1.51329 3.70731 1.73872L15.5199 9.02018C15.8749 9.23878 16.0781 9.60327 16.0772 10.0202C16.0764 10.4371 15.8717 10.8008 15.5147 11.0187L6.97419 16.2479C6.60685 16.4728 6.49138 16.9529 6.7163 17.3202C6.94118 17.6876 7.4213 17.8031 7.78865 17.5781L16.3282 12.3495C17.1458 11.8507 17.6351 10.9812 17.637 10.0233C17.639 9.06561 17.1532 8.19405 16.338 7.69217Z" fill="white"/>
</svg>
