<svg width="25" height="22" viewBox="0 0 25 22" fill="none" xmlns="http://www.w3.org/2000/svg">
<path d="M22.1816 2.44574C20.9365 1.09532 19.2281 0.351562 17.3706 0.351562C15.9822 0.351562 14.7107 0.790511 13.5913 1.65611C13.0265 2.09304 12.5147 2.6276 12.0634 3.25152C11.6124 2.62778 11.1004 2.09304 10.5354 1.65611C9.41614 0.790511 8.14462 0.351562 6.75621 0.351562C4.89876 0.351562 3.19012 1.09532 1.94503 2.44574C0.7148 3.78039 0.0371094 5.60371 0.0371094 7.58008C0.0371094 9.61425 0.795176 11.4763 2.4227 13.4402C3.87864 15.1969 5.97117 16.9802 8.39438 19.0452C9.22181 19.7504 10.1597 20.5498 11.1336 21.4013C11.3909 21.6266 11.721 21.7507 12.0634 21.7507C12.4057 21.7507 12.736 21.6266 12.9929 21.4016C13.9667 20.55 14.9052 19.7502 15.733 19.0447C18.1558 16.98 20.2484 15.1969 21.7043 13.44C23.3318 11.4763 24.0897 9.61425 24.0897 7.57989C24.0897 5.60371 23.412 3.78039 22.1816 2.44574Z" fill="#D53030"/>
</svg>
