<svg width="18" height="18" viewBox="0 0 18 18" fill="none" xmlns="http://www.w3.org/2000/svg">
<path d="M17.1562 9.46094C17.1562 11.9453 16.3711 13.9844 14.8008 15.5781C13.2539 17.1719 11.2266 17.9688 8.71875 17.9688C6.30469 17.9688 4.24219 17.125 2.53125 15.4375C0.84375 13.7266 0 11.6641 0 9.25C0 6.83594 0.84375 4.78516 2.53125 3.09766C4.24219 1.38672 6.30469 0.53125 8.71875 0.53125C10.9922 0.53125 12.9375 1.29297 14.5547 2.81641L12.1992 5.10156C11.4492 4.375 10.5469 3.95312 9.49219 3.83594C8.46094 3.69531 7.48828 3.82422 6.57422 4.22266C5.68359 4.59766 4.91016 5.24219 4.25391 6.15625C3.62109 7.04688 3.30469 8.07812 3.30469 9.25C3.30469 10.7734 3.83203 12.0742 4.88672 13.1523C5.94141 14.2305 7.21875 14.7695 8.71875 14.7695C9.53906 14.7695 10.2656 14.6406 10.8984 14.3828C11.5547 14.1016 12.0586 13.7617 12.4102 13.3633C12.7852 12.9414 13.0664 12.5312 13.2539 12.1328C13.4648 11.7344 13.6055 11.3594 13.6758 11.0078H8.71875V7.98438H17.0156C17.1094 8.5 17.1562 8.99219 17.1562 9.46094Z" fill="white"/>
</svg>
