<svg width="18" height="16" viewBox="0 0 18 16" fill="none" xmlns="http://www.w3.org/2000/svg">
<path d="M16.1367 4.59375C16.1602 4.6875 16.1719 4.83984 16.1719 5.05078C16.1719 6.29297 15.9375 7.53516 15.4688 8.77734C15 9.99609 14.332 11.1211 13.4648 12.1523C12.6211 13.1602 11.5195 13.9805 10.1602 14.6133C8.80078 15.2461 7.30078 15.5625 5.66016 15.5625C3.59766 15.5625 1.71094 15.0117 0 13.9102C0.257812 13.9336 0.550781 13.9453 0.878906 13.9453C2.58984 13.9453 4.125 13.418 5.48438 12.3633C4.66406 12.3633 3.9375 12.1289 3.30469 11.6602C2.69531 11.168 2.27344 10.5586 2.03906 9.83203C2.27344 9.85547 2.49609 9.86719 2.70703 9.86719C3.03516 9.86719 3.36328 9.83203 3.69141 9.76172C3.12891 9.64453 2.625 9.41016 2.17969 9.05859C1.73438 8.70703 1.38281 8.28516 1.125 7.79297C0.867188 7.27734 0.738281 6.72656 0.738281 6.14062V6.07031C1.25391 6.375 1.80469 6.53906 2.39062 6.5625C1.28906 5.8125 0.738281 4.78125 0.738281 3.46875C0.738281 2.8125 0.914062 2.19141 1.26562 1.60547C2.17969 2.75391 3.29297 3.66797 4.60547 4.34766C5.94141 5.02734 7.35938 5.40234 8.85938 5.47266C8.8125 5.19141 8.78906 4.91016 8.78906 4.62891C8.78906 3.62109 9.14062 2.75391 9.84375 2.02734C10.5703 1.30078 11.4375 0.9375 12.4453 0.9375C13.5234 0.9375 14.4258 1.32422 15.1523 2.09766C15.9961 1.93359 16.7812 1.64062 17.5078 1.21875C17.2266 2.08594 16.6875 2.76562 15.8906 3.25781C16.5938 3.16406 17.2969 2.96484 18 2.66016C17.4844 3.41016 16.8633 4.05469 16.1367 4.59375Z" fill="white"/>
</svg>
