<svg width="20" height="12" viewBox="0 0 20 12" fill="none" xmlns="http://www.w3.org/2000/svg">
<path d="M19.1602 1.39844C19.0898 1.75 18.8086 2.32422 18.3164 3.12109C17.8477 3.91797 17.4141 4.62109 17.0156 5.23047C16.6172 5.81641 16.4062 6.12109 16.3828 6.14453C16.2422 6.35547 16.1719 6.50781 16.1719 6.60156C16.1719 6.69531 16.2422 6.85938 16.3828 7.09375C16.3828 7.09375 16.4531 7.17578 16.5938 7.33984C16.7578 7.50391 16.9453 7.69141 17.1562 7.90234C17.3672 8.11328 17.6016 8.35938 17.8594 8.64062C18.1172 8.92188 18.3516 9.20312 18.5625 9.48438C18.7969 9.74219 18.9961 10.0117 19.1602 10.293C19.3477 10.5742 19.4766 10.8086 19.5469 10.9961C19.7109 11.582 19.4766 11.875 18.8438 11.875H16.7695C16.6055 11.875 16.4648 11.8516 16.3477 11.8047C16.2305 11.7578 16.1016 11.6758 15.9609 11.5586C15.8203 11.4414 15.6914 11.3125 15.5742 11.1719C15.457 11.0312 15.2812 10.832 15.0469 10.5742C14.8125 10.3164 14.5781 10.0703 14.3438 9.83594C13.4062 8.94531 12.7148 8.5 12.2695 8.5C11.9883 8.5 11.8242 8.58203 11.7773 8.74609C11.7305 8.91016 11.707 9.37891 11.707 10.1523C11.7305 10.5273 11.7422 10.832 11.7422 11.0664C11.7422 11.3477 11.6484 11.5586 11.4609 11.6992C11.2734 11.8164 10.8633 11.875 10.2305 11.875C9.12891 11.875 8.01562 11.5469 6.89062 10.8906C5.76562 10.2344 4.78125 9.29688 3.9375 8.07812C3.14062 7 2.47266 5.93359 1.93359 4.87891C1.41797 3.80078 1.07812 2.98047 0.914062 2.41797C0.75 1.85547 0.667969 1.45703 0.667969 1.22266C0.667969 0.824219 0.902344 0.625 1.37109 0.625H3.44531C3.70312 0.625 3.89062 0.683594 4.00781 0.800781C4.14844 0.917969 4.26562 1.12891 4.35938 1.43359C4.85156 2.86328 5.44922 4.14062 6.15234 5.26562C6.87891 6.39062 7.42969 6.95312 7.80469 6.95312C7.94531 6.95312 8.03906 6.90625 8.08594 6.8125C8.15625 6.69531 8.19141 6.48438 8.19141 6.17969V3.12109C8.16797 2.79297 8.10938 2.51172 8.01562 2.27734C7.92188 2.04297 7.82812 1.87891 7.73438 1.78516C7.64062 1.66797 7.54688 1.55078 7.45312 1.43359C7.38281 1.31641 7.34766 1.21094 7.34766 1.11719C7.34766 1.02344 7.37109 0.941406 7.41797 0.871094C7.46484 0.800781 7.52344 0.742187 7.59375 0.695312C7.6875 0.648438 7.78125 0.625 7.875 0.625H11.1445C11.5195 0.625 11.707 0.882812 11.707 1.39844V5.47656C11.707 5.875 11.8125 6.07422 12.0234 6.07422C12.2578 6.07422 12.5859 5.86328 13.0078 5.44141C13.4531 4.94922 13.8867 4.35156 14.3086 3.64844C14.7305 2.94531 15.0469 2.35937 15.2578 1.89062L15.5742 1.22266C15.7383 0.824219 16.0312 0.625 16.4531 0.625H18.5273C19.0898 0.625 19.3008 0.882812 19.1602 1.39844Z" fill="white"/>
</svg>
